<svg xmlns="http://www.w3.org/2000/svg" version="1.1" xmlns:xlink="http://www.w3.org/1999/xlink" viewBox="0 0 200 200" width="200" height="200"><metadata><rdf:RDF xmlns:rdf="http://www.w3.org/1999/02/22-rdf-syntax-ns#" xmlns:dc="http://purl.org/dc/elements/1.1/"><rdf:Description><dc:creator>RealFaviconGenerator</dc:creator><dc:source>https://realfavicongenerator.net</dc:source></rdf:Description></rdf:RDF></metadata><rect width="200" height="200" fill="url('#gradient')"></rect><defs><linearGradient id="gradient" gradientTransform="rotate(58 0.5 0.5)"><stop offset="0%" stop-color="#832018"></stop><stop offset="100%" stop-color="#c2f199"></stop></linearGradient></defs><g><g fill="#3a2c43" transform="matrix(5.7547107438016525,0,0,5.7547107438016525,12.986705485769548,140.92024956852936)" stroke="#832018" stroke-width="0.45"><path d="M6.74-4.46L6.74-14.22L10.16-14.22L10.16-4.46Q10.16-3.11 9.53-2.04Q8.90-0.98 7.77-0.39Q6.64 0.20 5.25 0.20L5.25 0.20Q2.93 0.20 1.64-0.98Q0.35-2.15 0.35-4.30L0.35-4.30L3.79-4.30Q3.79-3.32 4.13-2.88Q4.46-2.44 5.25-2.44L5.25-2.44Q5.97-2.44 6.35-2.97Q6.74-3.51 6.74-4.46L6.74-4.46ZM14.20-3.19L14.20-3.19Q14.98-3.19 15.50-2.73Q16.02-2.27 16.02-1.54Q16.02-0.82 15.50-0.36Q14.98 0.11 14.20 0.11L14.20 0.11Q13.41 0.11 12.90-0.36Q12.38-0.83 12.38-1.54Q12.38-2.26 12.90-2.72Q13.41-3.19 14.20-3.19ZM26.46-4.81L29.86-4.81Q29.79-3.33 29.06-2.19Q28.33-1.05 27.01-0.43Q25.68 0.20 23.98 0.20L23.98 0.20Q21.18 0.20 19.57-1.63Q17.96-3.46 17.96-6.79L17.96-6.79L17.96-7.49Q17.96-9.58 18.69-11.15Q19.41-12.71 20.78-13.57Q22.15-14.42 23.95-14.42L23.95-14.42Q26.53-14.42 28.11-13.06Q29.68-11.70 29.89-9.31L29.89-9.31L26.47-9.31Q26.44-10.61 25.82-11.17Q25.21-11.74 23.95-11.74L23.95-11.74Q22.67-11.74 22.07-10.78Q21.47-9.82 21.45-7.72L21.45-7.72L21.45-6.72Q21.45-4.44 22.02-3.47Q22.59-2.49 23.98-2.49L23.98-2.49Q25.17-2.49 25.79-3.05Q26.42-3.60 26.46-4.81L26.46-4.81Z"></path></g></g></svg>